# xmcd
#
# Track frame offsets:
#	150
#	17592
#	35100
#	52445
#	69825
#	87037
#	104207
#	121355
#	138470
#	155635
#	172710
#	189632
#	206500
#	223792
#	240927
#	258280
#	275790
#	293182
#
# Disc length: 4138 seconds
#
# Revision: 0
# Processed by: cddbd v1.5.2PL0 Copyright (c) Steve Scherf et al.
# Submitted via: audiograbber 1.83.01
#
DISCID=12102812
DTITLE=Royal Records - Platinum 2008 CD 1/2
DYEAR=2008
DGENRE=Country
TTITLE0=Wrapped RYL 166 voc
TTITLE1=Wrapped RYL 166
TTITLE2=Above and Beyond  RYL 161 voc
TTITLE3=Above and Beyond  RYL 161
TTITLE4=You Decorated My Life RYL 165 voc
TTITLE5=You Decorated My Life RYL 165
TTITLE6=How Blue Can I Feel RYL 163 voc
TTITLE7=How Blue Can I Feel RYL 163
TTITLE8=I Can't Fight This Feeling RYL 164 voc
TTITLE9=I Can't Fight This Feeling RYL 164
TTITLE10=Have a Little Talk with Jesus RYL 162 voc
TTITLE11=Have a Little Talk with Jesus RYL 162
TTITLE12=Got No Reason for Going Home RYL 167 voc
TTITLE13=Got No Reason for Going Home RYL 167
TTITLE14=Can't Even Get Blues RYL 168 voc
TTITLE15=Can't Even Get Blues RYL 168
TTITLE16=Tiger By the Tail RYL 822 voc
TTITLE17=Tiger By the Tail RYL 822
EXTD=YEAR: 2008
EXTT0=
EXTT1=
EXTT2=
EXTT3=
EXTT4=
EXTT5=
EXTT6=
EXTT7=
EXTT8=
EXTT9=
EXTT10=
EXTT11=
EXTT12=
EXTT13=
EXTT14=
EXTT15=
EXTT16=
EXTT17=
PLAYORDER=
